<svg width="960" height="2158" viewBox="0 0 960 2158" class="keymap" xmlns="http://www.w3.org/2000/svg"
  xmlns:xlink="http://www.w3.org/1999/xlink">
  <defs>/* start glyphs */
    <svg id="mdi:keyboard-return">
      <svg xmlns="http://www.w3.org/2000/svg" id="mdi-keyboard-return" viewBox="0 0 24 24">
        <path d="M19,7V11H5.83L9.41,7.41L8,6L2,12L8,18L9.41,16.58L5.83,13H21V7H19Z" />
      </svg>
    </svg>
    <svg id="mdi:keyboard-space">
      <svg xmlns="http://www.w3.org/2000/svg" id="mdi-keyboard-space" viewBox="0 0 24 24">
        <path d="M3 15H5V19H19V15H21V19C21 20.1 20.1 21 19 21H5C3.9 21 3 20.1 3 19V15Z" />
      </svg>
    </svg>
  </defs>/* end glyphs */
  <style>
    /* inherit to force styles through use tags */
    svg path {
      fill: inherit;
    }

    /* font and background color specifications */
    svg.keymap {
      font-family: SFMono-Regular, Consolas, Liberation Mono, Menlo, monospace;
      font-size: 14px;
      font-kerning: normal;
      text-rendering: optimizeLegibility;
      fill: #24292e;
    }

    /* default key styling */
    rect.key {
      fill: #f6f8fa;
      stroke: #c9cccf;
      stroke-width: 1;
    }

    /* default key side styling, only used is draw_key_sides is set */
    rect.side {
      filter: brightness(90%);
    }

    /* color accent for combo boxes */
    rect.combo,
    rect.combo-separate {
      fill: #cdf;
    }

    /* color accent for held keys */
    rect.held,
    rect.combo.held {
      fill: #fdd;
    }

    /* color accent for ghost (optional) keys */
    rect.ghost,
    rect.combo.ghost {
      stroke-dasharray: 4, 4;
      stroke-width: 2;
    }

    text {
      text-anchor: middle;
      dominant-baseline: middle;
    }

    /* styling for layer labels */
    text.label {
      font-weight: bold;
      text-anchor: start;
      stroke: white;
      stroke-width: 2;
      paint-order: stroke;
    }

    /* styling for combo tap, and key hold/shifted label text */
    text.combo,
    text.hold,
    text.shifted {
      font-size: 11px;
    }

    text.hold {
      text-anchor: middle;
      dominant-baseline: auto;
    }

    text.shifted {
      text-anchor: middle;
      dominant-baseline: hanging;
    }

    /* styling for hold/shifted label text in combo box */
    text.combo.hold,
    text.combo.shifted {
      font-size: 8px;
    }

    /* lighter symbol for transparent keys */
    text.trans {
      fill: #7b7e81;
    }

    /* styling for combo dendrons */
    path.combo {
      stroke-width: 1;
      stroke: gray;
      fill: none;
    }

    /* Start Tabler Icons Cleanup */
    /* cannot use height/width with glyphs */
    .icon-tabler>path {
      fill: inherit;
      stroke: inherit;
      stroke-width: 2;
    }

    /* hide tabler's default box */
    .icon-tabler>path[stroke="none"][fill="none"] {
      visibility: hidden;
    }

    /* End Tabler Icons Cleanup */
  </style>
  <g transform="translate(30, 0)" class="layer-Base">
    <g transform="translate(0, 56)">
      <g transform="translate(30, 52)" class="key keypos-0">
        <rect rx="6" ry="6" x="-28" y="-28" width="56" height="56" class="key side" />
        <rect rx="4" ry="4" x="-22" y="-26" width="44" height="44" class="key" />
        <text x="0" y="-4" class="key tap">Tab</text>
      </g>
      <g transform="translate(90, 52)" class="key keypos-1">
        <rect rx="6" ry="6" x="-28" y="-28" width="56" height="56" class="key side" />
        <rect rx="4" ry="4" x="-22" y="-26" width="44" height="44" class="key" />
        <text x="0" y="-4" class="key tap">Q</text>
      </g>
      <g transform="translate(150, 38)" class="key keypos-2">
        <rect rx="6" ry="6" x="-28" y="-28" width="56" height="56" class="key side" />
        <rect rx="4" ry="4" x="-22" y="-26" width="44" height="44" class="key" />
        <text x="0" y="-4" class="key tap">W</text>
        <text x="0" y="-26" class="key shifted">
          <tspan style="font-size: 88%">Del-word</tspan>
        </text>
      </g>
      <g transform="translate(210, 30)" class="key keypos-3">
        <rect rx="6" ry="6" x="-28" y="-28" width="56" height="56" class="key side" />
        <rect rx="4" ry="4" x="-22" y="-26" width="44" height="44" class="key" />
        <text x="0" y="-4" class="key tap">E</text>
      </g>
      <g transform="translate(270, 38)" class="key keypos-4">
        <rect rx="6" ry="6" x="-28" y="-28" width="56" height="56" class="key side" />
        <rect rx="4" ry="4" x="-22" y="-26" width="44" height="44" class="key" />
        <text x="0" y="-4" class="key tap">R</text>
      </g>
      <g transform="translate(330, 45)" class="key keypos-5">
        <rect rx="6" ry="6" x="-28" y="-28" width="56" height="56" class="key side" />
        <rect rx="4" ry="4" x="-22" y="-26" width="44" height="44" class="key" />
        <text x="0" y="-4" class="key tap">T</text>
      </g>
      <g transform="translate(570, 45)" class="key keypos-6">
        <rect rx="6" ry="6" x="-28" y="-28" width="56" height="56" class="key side" />
        <rect rx="4" ry="4" x="-22" y="-26" width="44" height="44" class="key" />
        <text x="0" y="-4" class="key tap">Y</text>
      </g>
      <g transform="translate(630, 38)" class="key keypos-7">
        <rect rx="6" ry="6" x="-28" y="-28" width="56" height="56" class="key side" />
        <rect rx="4" ry="4" x="-22" y="-26" width="44" height="44" class="key" />
        <text x="0" y="-4" class="key tap">U</text>
      </g>
      <g transform="translate(690, 30)" class="key keypos-8">
        <rect rx="6" ry="6" x="-28" y="-28" width="56" height="56" class="key side" />
        <rect rx="4" ry="4" x="-22" y="-26" width="44" height="44" class="key" />
        <text x="0" y="-4" class="key tap">I</text>
      </g>
      <g transform="translate(750, 38)" class="key keypos-9">
        <rect rx="6" ry="6" x="-28" y="-28" width="56" height="56" class="key side" />
        <rect rx="4" ry="4" x="-22" y="-26" width="44" height="44" class="key" />
        <text x="0" y="-4" class="key tap">O</text>
      </g>
      <g transform="translate(810, 52)" class="key keypos-10">
        <rect rx="6" ry="6" x="-28" y="-28" width="56" height="56" class="key side" />
        <rect rx="4" ry="4" x="-22" y="-26" width="44" height="44" class="key" />
        <text x="0" y="-4" class="key tap">P</text>
      </g>
      <g transform="translate(870, 52)" class="key keypos-11">
        <rect rx="6" ry="6" x="-28" y="-28" width="56" height="56" class="key side" />
        <rect rx="4" ry="4" x="-22" y="-26" width="44" height="44" class="key" />
        <text x="0" y="-4" class="key tap">-</text>
      </g>
      <g transform="translate(30, 112)" class="key keypos-12">
        <rect rx="6" ry="6" x="-28" y="-28" width="56" height="56" class="key side" />
        <rect rx="4" ry="4" x="-22" y="-26" width="44" height="44" class="key" />
        <text x="0" y="-4" class="key tap">RCtrl</text>
      </g>
      <g transform="translate(90, 112)" class="key keypos-13">
        <rect rx="6" ry="6" x="-28" y="-28" width="56" height="56" class="key side" />
        <rect rx="4" ry="4" x="-22" y="-26" width="44" height="44" class="key" />
        <text x="0" y="-4" class="key tap">A</text>
      </g>
      <g transform="translate(150, 98)" class="key keypos-14">
        <rect rx="6" ry="6" x="-28" y="-28" width="56" height="56" class="key side" />
        <rect rx="4" ry="4" x="-22" y="-26" width="44" height="44" class="key" />
        <text x="0" y="-4" class="key tap">S</text>
      </g>
      <g transform="translate(210, 90)" class="key keypos-15">
        <rect rx="6" ry="6" x="-28" y="-28" width="56" height="56" class="key side" />
        <rect rx="4" ry="4" x="-22" y="-26" width="44" height="44" class="key" />
        <text x="0" y="-4" class="key tap">D</text>
      </g>
      <g transform="translate(270, 98)" class="key keypos-16">
        <rect rx="6" ry="6" x="-28" y="-28" width="56" height="56" class="key side" />
        <rect rx="4" ry="4" x="-22" y="-26" width="44" height="44" class="key" />
        <text x="0" y="-4" class="key tap">F</text>
      </g>
      <g transform="translate(330, 105)" class="key keypos-17">
        <rect rx="6" ry="6" x="-28" y="-28" width="56" height="56" class="key side" />
        <rect rx="4" ry="4" x="-22" y="-26" width="44" height="44" class="key" />
        <text x="0" y="-4" class="key tap">G</text>
      </g>
      <g transform="translate(570, 105)" class="key keypos-18">
        <rect rx="6" ry="6" x="-28" y="-28" width="56" height="56" class="key side" />
        <rect rx="4" ry="4" x="-22" y="-26" width="44" height="44" class="key" />
        <text x="0" y="-4" class="key tap">H</text>
        <text x="0" y="-26" class="key shifted">BSPC</text>
      </g>
      <g transform="translate(630, 98)" class="key keypos-19">
        <rect rx="6" ry="6" x="-28" y="-28" width="56" height="56" class="key side" />
        <rect rx="4" ry="4" x="-22" y="-26" width="44" height="44" class="key" />
        <text x="0" y="-4" class="key tap">J</text>
      </g>
      <g transform="translate(690, 90)" class="key keypos-20">
        <rect rx="6" ry="6" x="-28" y="-28" width="56" height="56" class="key side" />
        <rect rx="4" ry="4" x="-22" y="-26" width="44" height="44" class="key" />
        <text x="0" y="-4" class="key tap">K</text>
      </g>
      <g transform="translate(750, 98)" class="key keypos-21">
        <rect rx="6" ry="6" x="-28" y="-28" width="56" height="56" class="key side" />
        <rect rx="4" ry="4" x="-22" y="-26" width="44" height="44" class="key" />
        <text x="0" y="-4" class="key tap">L</text>
      </g>
      <g transform="translate(810, 112)" class="key keypos-22">
        <rect rx="6" ry="6" x="-28" y="-28" width="56" height="56" class="key side" />
        <rect rx="4" ry="4" x="-22" y="-26" width="44" height="44" class="key" />
        <text x="0" y="-4" class="key tap">;</text>
      </g>
      <g transform="translate(870, 112)" class="key keypos-23">
        <rect rx="6" ry="6" x="-28" y="-28" width="56" height="56" class="key side" />
        <rect rx="4" ry="4" x="-22" y="-26" width="44" height="44" class="key" />
        <text x="0" y="-4" class="key tap">&#x27;</text>
      </g>
      <g transform="translate(30, 172)" class="key keypos-24">
        <rect rx="6" ry="6" x="-28" y="-28" width="56" height="56" class="key side" />
        <rect rx="4" ry="4" x="-22" y="-26" width="44" height="44" class="key" />
        <text x="0" y="-4" class="key tap">
          <tspan x="0" dy="-0.6em">Caps</tspan>
          <tspan x="0" dy="1.2em">Word</tspan>
        </text>
      </g>
      <g transform="translate(90, 172)" class="key keypos-25">
        <rect rx="6" ry="6" x="-28" y="-28" width="56" height="56" class="key side" />
        <rect rx="4" ry="4" x="-22" y="-26" width="44" height="44" class="key" />
        <text x="0" y="-4" class="key tap">Z</text>
      </g>
      <g transform="translate(150, 158)" class="key keypos-26">
        <rect rx="6" ry="6" x="-28" y="-28" width="56" height="56" class="key side" />
        <rect rx="4" ry="4" x="-22" y="-26" width="44" height="44" class="key" />
        <text x="0" y="-4" class="key tap">X</text>
      </g>
      <g transform="translate(210, 150)" class="key keypos-27">
        <rect rx="6" ry="6" x="-28" y="-28" width="56" height="56" class="key side" />
        <rect rx="4" ry="4" x="-22" y="-26" width="44" height="44" class="key" />
        <text x="0" y="-4" class="key tap">C</text>
      </g>
      <g transform="translate(270, 158)" class="key keypos-28">
        <rect rx="6" ry="6" x="-28" y="-28" width="56" height="56" class="key side" />
        <rect rx="4" ry="4" x="-22" y="-26" width="44" height="44" class="key" />
        <text x="0" y="-4" class="key tap">V</text>
      </g>
      <g transform="translate(330, 165)" class="key keypos-29">
        <rect rx="6" ry="6" x="-28" y="-28" width="56" height="56" class="key side" />
        <rect rx="4" ry="4" x="-22" y="-26" width="44" height="44" class="key" />
        <text x="0" y="-4" class="key tap">B</text>
      </g>
      <g transform="translate(570, 165)" class="key keypos-30">
        <rect rx="6" ry="6" x="-28" y="-28" width="56" height="56" class="key side" />
        <rect rx="4" ry="4" x="-22" y="-26" width="44" height="44" class="key" />
        <text x="0" y="-4" class="key tap">N</text>
      </g>
      <g transform="translate(630, 158)" class="key keypos-31">
        <rect rx="6" ry="6" x="-28" y="-28" width="56" height="56" class="key side" />
        <rect rx="4" ry="4" x="-22" y="-26" width="44" height="44" class="key" />
        <text x="0" y="-4" class="key tap">M</text>
      </g>
      <g transform="translate(690, 150)" class="key keypos-32">
        <rect rx="6" ry="6" x="-28" y="-28" width="56" height="56" class="key side" />
        <rect rx="4" ry="4" x="-22" y="-26" width="44" height="44" class="key" />
        <text x="0" y="-4" class="key tap">,</text>
      </g>
      <g transform="translate(750, 158)" class="key keypos-33">
        <rect rx="6" ry="6" x="-28" y="-28" width="56" height="56" class="key side" />
        <rect rx="4" ry="4" x="-22" y="-26" width="44" height="44" class="key" />
        <text x="0" y="-4" class="key tap">.</text>
      </g>
      <g transform="translate(810, 172)" class="key keypos-34">
        <rect rx="6" ry="6" x="-28" y="-28" width="56" height="56" class="key side" />
        <rect rx="4" ry="4" x="-22" y="-26" width="44" height="44" class="key" />
        <text x="0" y="-4" class="key tap">/</text>
      </g>
      <g transform="translate(870, 172)" class="key keypos-35">
        <rect rx="6" ry="6" x="-28" y="-28" width="56" height="56" class="key side" />
        <rect rx="4" ry="4" x="-22" y="-26" width="44" height="44" class="key" />
        <text x="0" y="-4" class="key tap">=</text>
      </g>
      <g transform="translate(240, 219)" class="key keypos-36">
        <rect rx="6" ry="6" x="-28" y="-28" width="56" height="56" class="key side" />
        <rect rx="4" ry="4" x="-22" y="-26" width="44" height="44" class="key" />
        <text x="0" y="-4" class="key tap">Mouse</text>
        <text x="0" y="26" class="key hold">Nav</text>
      </g>
      <g transform="translate(306, 228) rotate(15.0)" class="key keypos-37">
        <rect rx="6" ry="6" x="-28" y="-28" width="56" height="56" class="key side" />
        <rect rx="4" ry="4" x="-22" y="-26" width="44" height="44" class="key" />
        <text x="0" y="-4" class="key tap">
          <tspan x="0" dy="-1.2em" style="font-size: 88%">One-Shot</tspan>
          <tspan x="0" dy="1.2em" style="font-size: 88%">Sym</tspan>
        </text>
        <text x="0" y="26" class="key hold">Sym</text>
      </g>
      <g transform="translate(376, 240) rotate(30.0)" class="key keypos-38">
        <rect rx="6" ry="6" x="-28" y="-43" width="56" height="86" class="key side" />
        <rect rx="4" ry="4" x="-22" y="-41" width="44" height="74" class="key" />
        <use href="#mdi:keyboard-space" xlink:href="#mdi:keyboard-space" x="-9" y="-13" height="18" width="18.0"
          class="key tap glyph mdi:keyboard-space" />
      </g>
      <g transform="translate(524, 240) rotate(-30.0)" class="key keypos-39">
        <rect rx="6" ry="6" x="-28" y="-43" width="56" height="86" class="key side" />
        <rect rx="4" ry="4" x="-22" y="-41" width="44" height="74" class="key" />
        <use href="#mdi:keyboard-return" xlink:href="#mdi:keyboard-return" x="-9" y="-13" height="18" width="18.0"
          class="key tap glyph mdi:keyboard-return" />
      </g>
      <g transform="translate(594, 228) rotate(-15.0)" class="key keypos-40">
        <rect rx="6" ry="6" x="-28" y="-28" width="56" height="56" class="key side" />
        <rect rx="4" ry="4" x="-22" y="-26" width="44" height="44" class="key" />
        <text x="0" y="-4" class="key tap">
          <tspan x="0" dy="-1.2em">Num</tspan>
          <tspan x="0" dy="1.2em">Word</tspan>
        </text>
        <text x="0" y="26" class="key hold">Num</text>
      </g>
      <g transform="translate(660, 219)" class="key keypos-41">
        <rect rx="6" ry="6" x="-28" y="-28" width="56" height="56" class="key side" />
        <rect rx="4" ry="4" x="-22" y="-26" width="44" height="44" class="key" />
        <text x="0" y="-4" class="key tap">Mouse</text>
        <text x="0" y="26" class="key hold">Nav</text>
      </g>
      <g class="combo combopos-0">
        <path d="M180,-1 h-24 a6.0,6.0 0 0 0 -6.0,6.0 v12" class="combo" />
        <path d="M180,-1 h24 a6.0,6.0 0 0 1 6.0,6.0 v5" class="combo" />
        <rect rx="6" ry="6" x="166" y="-11" width="28" height="20" class="combo" />
        <text x="180" y="-1" class="combo tap">Esc</text>
      </g>
      <g class="combo combopos-1">
        <path d="M720,-1 h-24 a6.0,6.0 0 0 0 -6.0,6.0 v5" class="combo" />
        <path d="M720,-1 h24 a6.0,6.0 0 0 1 6.0,6.0 v12" class="combo" />
        <rect rx="6" ry="6" x="706" y="-11" width="28" height="20" class="combo" />
        <text x="720" y="-1" class="combo tap">Esc</text>
      </g>
      <g class="combo combopos-2">
        <rect rx="6" ry="6" x="826" y="42" width="28" height="20" class="combo" />
        <text x="840" y="52" class="combo tap">BSPC</text>
      </g>
      <g class="combo combopos-3">
        <path d="M180,144 h-84 a6.0,6.0 0 0 1 -6.0,-6.0 v-5" class="combo" />
        <path d="M180,144 h84 a6.0,6.0 0 0 0 6.0,-6.0 v-20" class="combo" />
        <rect rx="6" ry="6" x="166" y="134" width="28" height="20" class="combo" />
        <text x="180" y="144" class="combo tap">Gui</text>
      </g>
      <g class="combo combopos-4">
        <path d="M210,66 h-54 a6.0,6.0 0 0 0 -6.0,6.0 v5" class="combo" />
        <path d="M210,66 h54 a6.0,6.0 0 0 1 6.0,6.0 v5" class="combo" />
        <rect rx="6" ry="6" x="196" y="56" width="28" height="20" class="combo" />
        <text x="210" y="66" class="combo tap">Alt</text>
      </g>
      <g class="combo combopos-5">
        <rect rx="6" ry="6" x="226" y="84" width="28" height="20" class="combo" />
        <text x="240" y="94" class="combo tap">Ctrl</text>
      </g>
      <g class="combo combopos-6">
        <rect rx="6" ry="6" x="166" y="84" width="28" height="20" class="combo" />
        <text x="180" y="94" class="combo tap">Shift</text>
      </g>
      <g class="combo combopos-7">
        <path d="M720,144 h-84 a6.0,6.0 0 0 1 -6.0,-6.0 v-20" class="combo" />
        <path d="M720,144 h84 a6.0,6.0 0 0 0 6.0,-6.0 v-5" class="combo" />
        <rect rx="6" ry="6" x="706" y="134" width="28" height="20" class="combo" />
        <text x="720" y="144" class="combo tap">Gui</text>
      </g>
      <g class="combo combopos-8">
        <path d="M690,66 h-54 a6.0,6.0 0 0 0 -6.0,6.0 v5" class="combo" />
        <path d="M690,66 h54 a6.0,6.0 0 0 1 6.0,6.0 v5" class="combo" />
        <rect rx="6" ry="6" x="676" y="56" width="28" height="20" class="combo" />
        <text x="690" y="66" class="combo tap">Alt</text>
      </g>
      <g class="combo combopos-9">
        <rect rx="6" ry="6" x="646" y="84" width="28" height="20" class="combo" />
        <text x="660" y="94" class="combo tap">Ctrl</text>
      </g>
      <g class="combo combopos-10">
        <rect rx="6" ry="6" x="706" y="84" width="28" height="20" class="combo" />
        <text x="720" y="94" class="combo tap">Shift</text>
      </g>
      <g class="combo combopos-11">
        <path d="M210,128 h-54 a6.0,6.0 0 0 1 -6.0,-6.0 v-5" class="combo" />
        <path d="M210,128 l0,-19" class="combo" />
        <path d="M210,128 h54 a6.0,6.0 0 0 0 6.0,-6.0 v-5" class="combo" />
        <rect rx="6" ry="6" x="196" y="118" width="28" height="20" class="combo" />
        <text x="210" y="128" class="combo tap">
          <tspan x="210" dy="-0.6em">Ctrl</tspan>
          <tspan x="210" dy="1.2em">Shift</tspan>
        </text>
      </g>
      <g class="combo combopos-12">
        <path d="M690,128 h-54 a6.0,6.0 0 0 1 -6.0,-6.0 v-5" class="combo" />
        <path d="M690,128 l0,-19" class="combo" />
        <path d="M690,128 h54 a6.0,6.0 0 0 0 6.0,-6.0 v-5" class="combo" />
        <rect rx="6" ry="6" x="676" y="118" width="28" height="20" class="combo" />
        <text x="690" y="128" class="combo tap">
          <tspan x="690" dy="-0.6em">Ctrl</tspan>
          <tspan x="690" dy="1.2em">Shift</tspan>
        </text>
      </g>
      <g class="combo combopos-13">
        <path d="M180,188 h-24 a6.0,6.0 0 0 1 -6.0,-6.0 v-5" class="combo" />
        <path d="M180,188 h24 a6.0,6.0 0 0 0 6.0,-6.0 v-12" class="combo" />
        <rect rx="6" ry="6" x="166" y="178" width="28" height="20" class="combo" />
        <text x="180" y="188" class="combo tap">
          <tspan x="180" dy="-0.6em">IME</tspan>
          <tspan x="180" dy="1.2em">Off</tspan>
        </text>
      </g>
      <g class="combo combopos-14">
        <path d="M720,188 h-24 a6.0,6.0 0 0 1 -6.0,-6.0 v-12" class="combo" />
        <path d="M720,188 h24 a6.0,6.0 0 0 0 6.0,-6.0 v-5" class="combo" />
        <rect rx="6" ry="6" x="706" y="178" width="28" height="20" class="combo" />
        <text x="720" y="188" class="combo tap">
          <tspan x="720" dy="-0.6em">IME</tspan>
          <tspan x="720" dy="1.2em">On</tspan>
        </text>
      </g>
    </g>
  </g>
</svg>
